<svg xmlns="http://www.w3.org/2000/svg" xmlns:xlink="http://www.w3.org/1999/xlink" width="500" zoomAndPan="magnify" viewBox="0 0 375 374.999991" height="500" preserveAspectRatio="xMidYMid meet" version="1.0"><defs><g/><clipPath id="dc788edc52"><path d="M 37.5 173 L 92.25 173 L 92.25 207 L 37.5 207 Z M 37.5 173 " clip-rule="nonzero"/></clipPath><clipPath id="aac2c833ab"><path d="M 65 190 L 92.25 190 L 92.25 207 L 65 207 Z M 65 190 " clip-rule="nonzero"/></clipPath></defs><g fill="#ffffff" fill-opacity="1"><g transform="translate(98.959981, 218.568455)"><g><path d="M 2.59375 -18.421875 L 2.59375 -36.171875 C 2.59375 -38.460938 2.644531 -40.359375 2.75 -41.859375 C 2.851562 -43.367188 3.066406 -44.6875 3.390625 -45.8125 C 3.722656 -46.9375 4.203125 -48.035156 4.828125 -49.109375 C 5.765625 -50.691406 7.085938 -52.003906 8.796875 -53.046875 C 10.515625 -54.085938 12.617188 -54.609375 15.109375 -54.609375 C 17.597656 -54.609375 19.695312 -54.085938 21.40625 -53.046875 C 23.125 -52.003906 24.445312 -50.691406 25.375 -49.109375 C 26.039062 -48.035156 26.523438 -46.9375 26.828125 -45.8125 C 27.140625 -44.6875 27.347656 -43.367188 27.453125 -41.859375 C 27.554688 -40.359375 27.609375 -38.460938 27.609375 -36.171875 L 27.609375 -35.1875 L 18.890625 -35.1875 L 18.890625 -38.875 C 18.890625 -39.707031 18.863281 -40.585938 18.8125 -41.515625 C 18.757812 -42.453125 18.613281 -43.328125 18.375 -44.140625 C 18.132812 -44.953125 17.753906 -45.617188 17.234375 -46.140625 C 16.710938 -46.660156 15.984375 -46.921875 15.046875 -46.921875 C 14.117188 -46.921875 13.394531 -46.660156 12.875 -46.140625 C 12.351562 -45.617188 11.988281 -44.953125 11.78125 -44.140625 C 11.570312 -43.328125 11.441406 -42.453125 11.390625 -41.515625 C 11.335938 -40.585938 11.3125 -39.707031 11.3125 -38.875 L 11.3125 -15.734375 C 11.3125 -14.898438 11.335938 -14.015625 11.390625 -13.078125 C 11.441406 -12.140625 11.570312 -11.265625 11.78125 -10.453125 C 11.988281 -9.640625 12.351562 -8.972656 12.875 -8.453125 C 13.394531 -7.941406 14.117188 -7.6875 15.046875 -7.6875 C 15.984375 -7.6875 16.710938 -7.941406 17.234375 -8.453125 C 17.753906 -8.972656 18.132812 -9.640625 18.375 -10.453125 C 18.613281 -11.265625 18.757812 -12.140625 18.8125 -13.078125 C 18.863281 -14.015625 18.890625 -14.898438 18.890625 -15.734375 L 18.890625 -19.9375 L 27.609375 -19.9375 L 27.609375 -18.421875 C 27.609375 -16.171875 27.554688 -14.273438 27.453125 -12.734375 C 27.347656 -11.203125 27.140625 -9.875 26.828125 -8.75 C 26.523438 -7.625 26.039062 -6.523438 25.375 -5.453125 C 24.445312 -3.890625 23.125 -2.585938 21.40625 -1.546875 C 19.695312 -0.515625 17.597656 0 15.109375 0 C 12.617188 0 10.515625 -0.515625 8.796875 -1.546875 C 7.085938 -2.585938 5.765625 -3.890625 4.828125 -5.453125 C 4.203125 -6.523438 3.722656 -7.625 3.390625 -8.75 C 3.066406 -9.875 2.851562 -11.203125 2.75 -12.734375 C 2.644531 -14.273438 2.59375 -16.171875 2.59375 -18.421875 Z M 2.59375 -18.421875 "/></g></g></g><g fill="#ffffff" fill-opacity="1"><g transform="translate(128.128402, 218.568455)"><g><path d="M 1.5625 -54.09375 L 12.921875 -54.09375 C 12.609375 -53.78125 12.359375 -53.179688 12.171875 -52.296875 C 11.984375 -51.410156 11.84375 -50.390625 11.75 -49.234375 C 11.664062 -48.078125 11.613281 -46.890625 11.59375 -45.671875 C 11.582031 -44.460938 11.578125 -43.351562 11.578125 -42.34375 C 11.578125 -41.34375 11.578125 -40.566406 11.578125 -40.015625 L 11.578125 -27.296875 C 11.578125 -27.296875 11.578125 -26.96875 11.578125 -26.3125 C 11.578125 -25.65625 11.578125 -24.820312 11.578125 -23.8125 C 11.578125 -22.8125 11.578125 -21.757812 11.578125 -20.65625 C 11.578125 -19.550781 11.578125 -18.519531 11.578125 -17.5625 C 11.578125 -16.613281 11.578125 -15.863281 11.578125 -15.3125 C 11.578125 -14.476562 11.628906 -13.59375 11.734375 -12.65625 C 11.835938 -11.726562 12.046875 -10.847656 12.359375 -10.015625 C 12.671875 -9.179688 13.117188 -8.503906 13.703125 -7.984375 C 14.285156 -7.472656 15.046875 -7.21875 15.984375 -7.21875 C 16.921875 -7.21875 17.671875 -7.472656 18.234375 -7.984375 C 18.804688 -8.503906 19.25 -9.179688 19.5625 -10.015625 C 19.875 -10.847656 20.082031 -11.726562 20.1875 -12.65625 C 20.289062 -13.59375 20.34375 -14.476562 20.34375 -15.3125 L 20.296875 -27.515625 C 20.296875 -27.472656 20.296875 -27.78125 20.296875 -28.4375 C 20.296875 -29.101562 20.296875 -29.960938 20.296875 -31.015625 C 20.296875 -32.066406 20.296875 -33.179688 20.296875 -34.359375 C 20.296875 -35.535156 20.296875 -36.625 20.296875 -37.625 C 20.296875 -38.632812 20.296875 -39.414062 20.296875 -39.96875 C 20.296875 -40.519531 20.300781 -41.296875 20.3125 -42.296875 C 20.332031 -43.304688 20.328125 -44.414062 20.296875 -45.625 C 20.265625 -46.832031 20.210938 -48.015625 20.140625 -49.171875 C 20.066406 -50.335938 19.9375 -51.359375 19.75 -52.234375 C 19.5625 -53.117188 19.296875 -53.71875 18.953125 -54.03125 L 30.359375 -54.03125 C 30.015625 -53.71875 29.75 -53.117188 29.5625 -52.234375 C 29.375 -51.359375 29.242188 -50.335938 29.171875 -49.171875 C 29.097656 -48.015625 29.046875 -46.832031 29.015625 -45.625 C 28.984375 -44.414062 28.972656 -43.304688 28.984375 -42.296875 C 29.003906 -41.296875 29.015625 -40.519531 29.015625 -39.96875 L 29.015625 -18.0625 C 29.015625 -15.78125 28.953125 -13.867188 28.828125 -12.328125 C 28.710938 -10.785156 28.5 -9.453125 28.1875 -8.328125 C 27.875 -7.203125 27.390625 -6.085938 26.734375 -4.984375 C 25.796875 -3.390625 24.398438 -2.070312 22.546875 -1.03125 C 20.703125 0 18.515625 0.515625 15.984375 0.515625 C 13.460938 0.515625 11.273438 0 9.421875 -1.03125 C 7.566406 -2.070312 6.15625 -3.390625 5.1875 -4.984375 C 4.53125 -6.085938 4.035156 -7.203125 3.703125 -8.328125 C 3.378906 -9.453125 3.164062 -10.785156 3.0625 -12.328125 C 2.957031 -13.867188 2.90625 -15.78125 2.90625 -18.0625 C 2.90625 -18.75 2.90625 -19.601562 2.90625 -20.625 C 2.90625 -21.644531 2.90625 -22.664062 2.90625 -23.6875 C 2.90625 -24.707031 2.90625 -25.5625 2.90625 -26.25 C 2.90625 -26.945312 2.90625 -27.296875 2.90625 -27.296875 L 2.90625 -40.015625 C 2.90625 -40.566406 2.910156 -41.34375 2.921875 -42.34375 C 2.941406 -43.351562 2.9375 -44.460938 2.90625 -45.671875 C 2.875 -46.890625 2.820312 -48.078125 2.75 -49.234375 C 2.675781 -50.390625 2.546875 -51.410156 2.359375 -52.296875 C 2.171875 -53.179688 1.90625 -53.78125 1.5625 -54.09375 Z M 1.5625 -54.09375 "/></g></g></g><g fill="#ffffff" fill-opacity="1"><g transform="translate(159.995681, 218.568455)"><g><path d="M 1.03125 -54.09375 L 27.359375 -54.09375 L 27.359375 -44.640625 C 26.628906 -45.117188 25.910156 -45.5 25.203125 -45.78125 C 24.492188 -46.0625 23.628906 -46.269531 22.609375 -46.40625 C 21.585938 -46.539062 20.242188 -46.609375 18.578125 -46.609375 L 18.578125 -13.1875 C 18.578125 -13.25 18.578125 -13.265625 18.578125 -13.234375 C 18.578125 -13.203125 18.578125 -13.097656 18.578125 -12.921875 L 18.578125 -13.1875 C 18.578125 -13.007812 18.585938 -12.503906 18.609375 -11.671875 C 18.628906 -10.847656 18.671875 -9.851562 18.734375 -8.6875 C 18.804688 -7.53125 18.921875 -6.351562 19.078125 -5.15625 C 19.234375 -3.96875 19.429688 -2.90625 19.671875 -1.96875 C 19.910156 -1.039062 20.222656 -0.382812 20.609375 0 L 7.84375 0 C 8.21875 -0.34375 8.523438 -0.988281 8.765625 -1.9375 C 9.015625 -2.894531 9.21875 -3.96875 9.375 -5.15625 C 9.53125 -6.351562 9.640625 -7.53125 9.703125 -8.6875 C 9.773438 -9.851562 9.816406 -10.847656 9.828125 -11.671875 C 9.847656 -12.503906 9.859375 -13.007812 9.859375 -13.1875 C 9.898438 -13.007812 9.925781 -12.894531 9.9375 -12.84375 C 9.957031 -12.789062 9.953125 -12.816406 9.921875 -12.921875 C 9.878906 -13.097656 9.867188 -13.203125 9.890625 -13.234375 C 9.910156 -13.265625 9.898438 -13.25 9.859375 -13.1875 C 9.859375 -13.707031 9.859375 -14.675781 9.859375 -16.09375 C 9.859375 -17.507812 9.859375 -19.21875 9.859375 -21.21875 C 9.859375 -23.226562 9.859375 -25.359375 9.859375 -27.609375 C 9.859375 -29.859375 9.859375 -32.070312 9.859375 -34.25 C 9.859375 -36.4375 9.859375 -38.445312 9.859375 -40.28125 C 9.859375 -42.113281 9.859375 -43.597656 9.859375 -44.734375 C 9.859375 -45.878906 9.859375 -46.503906 9.859375 -46.609375 C 8.203125 -46.609375 6.863281 -46.539062 5.84375 -46.40625 C 4.820312 -46.269531 3.957031 -46.0625 3.25 -45.78125 C 2.539062 -45.5 1.800781 -45.117188 1.03125 -44.640625 Z M 1.03125 -54.09375 "/></g></g></g><g fill="#ffffff" fill-opacity="1"><g transform="translate(188.385582, 218.568455)"><g/></g></g><g fill="#c7a17a" fill-opacity="1"><g transform="translate(201.37207, 218.568455)"><g><path d="M 2.59375 -18.015625 L 2.59375 -36.078125 C 2.59375 -38.359375 2.644531 -40.269531 2.75 -41.8125 C 2.851562 -43.351562 3.0625 -44.6875 3.375 -45.8125 C 3.6875 -46.9375 4.171875 -48.035156 4.828125 -49.109375 C 5.796875 -50.691406 7.132812 -52.003906 8.84375 -53.046875 C 10.5625 -54.085938 12.679688 -54.609375 15.203125 -54.609375 C 17.765625 -54.609375 19.898438 -54.085938 21.609375 -53.046875 C 23.328125 -52.003906 24.65625 -50.691406 25.59375 -49.109375 C 26.25 -48.035156 26.734375 -46.9375 27.046875 -45.8125 C 27.359375 -44.6875 27.566406 -43.351562 27.671875 -41.8125 C 27.773438 -40.269531 27.828125 -38.359375 27.828125 -36.078125 L 27.828125 -18.015625 C 27.828125 -15.722656 27.773438 -13.816406 27.671875 -12.296875 C 27.566406 -10.773438 27.359375 -9.453125 27.046875 -8.328125 C 26.734375 -7.203125 26.25 -6.085938 25.59375 -4.984375 C 24.625 -3.390625 23.289062 -2.070312 21.59375 -1.03125 C 19.894531 0 17.765625 0.515625 15.203125 0.515625 C 12.679688 0.515625 10.5625 0 8.84375 -1.03125 C 7.132812 -2.070312 5.796875 -3.390625 4.828125 -4.984375 C 4.171875 -6.085938 3.6875 -7.203125 3.375 -8.328125 C 3.0625 -9.453125 2.851562 -10.773438 2.75 -12.296875 C 2.644531 -13.816406 2.59375 -15.722656 2.59375 -18.015625 Z M 11.265625 -38.78125 L 11.265625 -15.3125 C 11.265625 -14.476562 11.296875 -13.59375 11.359375 -12.65625 C 11.429688 -11.726562 11.578125 -10.847656 11.796875 -10.015625 C 12.023438 -9.179688 12.40625 -8.503906 12.9375 -7.984375 C 13.476562 -7.472656 14.21875 -7.21875 15.15625 -7.21875 C 16.09375 -7.21875 16.835938 -7.472656 17.390625 -7.984375 C 17.941406 -8.503906 18.335938 -9.179688 18.578125 -10.015625 C 18.828125 -10.847656 18.984375 -11.726562 19.046875 -12.65625 C 19.117188 -13.59375 19.15625 -14.476562 19.15625 -15.3125 L 19.15625 -38.78125 C 19.15625 -39.601562 19.117188 -40.484375 19.046875 -41.421875 C 18.984375 -42.359375 18.828125 -43.238281 18.578125 -44.0625 C 18.335938 -44.894531 17.941406 -45.570312 17.390625 -46.09375 C 16.835938 -46.613281 16.09375 -46.875 15.15625 -46.875 C 14.21875 -46.875 13.476562 -46.613281 12.9375 -46.09375 C 12.40625 -45.570312 12.023438 -44.894531 11.796875 -44.0625 C 11.578125 -43.238281 11.429688 -42.359375 11.359375 -41.421875 C 11.296875 -40.484375 11.265625 -39.601562 11.265625 -38.78125 Z M 11.265625 -38.78125 "/></g></g></g><g fill="#c7a17a" fill-opacity="1"><g transform="translate(231.838019, 218.568455)"><g><path d="M 1.5625 -54.09375 L 11.671875 -54.09375 L 20.8125 -19.625 C 20.8125 -19.625 20.8125 -20.054688 20.8125 -20.921875 C 20.8125 -21.785156 20.816406 -22.914062 20.828125 -24.3125 C 20.847656 -25.71875 20.859375 -27.222656 20.859375 -28.828125 C 20.859375 -30.441406 20.867188 -32.023438 20.890625 -33.578125 C 20.910156 -35.140625 20.921875 -36.5 20.921875 -37.65625 C 20.921875 -38.8125 20.921875 -39.617188 20.921875 -40.078125 C 20.921875 -40.628906 20.921875 -41.40625 20.921875 -42.40625 C 20.921875 -43.40625 20.910156 -44.507812 20.890625 -45.71875 C 20.867188 -46.9375 20.816406 -48.125 20.734375 -49.28125 C 20.648438 -50.445312 20.507812 -51.46875 20.3125 -52.34375 C 20.125 -53.226562 19.875 -53.828125 19.5625 -54.140625 L 30.890625 -54.09375 C 30.578125 -53.78125 30.320312 -53.179688 30.125 -52.296875 C 29.9375 -51.410156 29.800781 -50.390625 29.71875 -49.234375 C 29.632812 -48.078125 29.582031 -46.890625 29.5625 -45.671875 C 29.539062 -44.460938 29.53125 -43.351562 29.53125 -42.34375 C 29.53125 -41.34375 29.53125 -40.566406 29.53125 -40.015625 L 29.53125 -14.0625 C 29.53125 -13.507812 29.53125 -12.726562 29.53125 -11.71875 C 29.53125 -10.71875 29.539062 -9.613281 29.5625 -8.40625 C 29.582031 -7.195312 29.632812 -6.007812 29.71875 -4.84375 C 29.800781 -3.6875 29.9375 -2.664062 30.125 -1.78125 C 30.320312 -0.90625 30.578125 -0.3125 30.890625 0 L 20.65625 0 L 11.515625 -32.65625 C 11.515625 -32.65625 11.515625 -32.265625 11.515625 -31.484375 C 11.515625 -30.703125 11.515625 -29.6875 11.515625 -28.4375 C 11.515625 -27.195312 11.523438 -25.835938 11.546875 -24.359375 C 11.566406 -22.890625 11.578125 -21.453125 11.578125 -20.046875 C 11.578125 -18.648438 11.578125 -17.414062 11.578125 -16.34375 C 11.578125 -15.269531 11.578125 -14.507812 11.578125 -14.0625 C 11.578125 -13.507812 11.566406 -12.726562 11.546875 -11.71875 C 11.523438 -10.71875 11.523438 -9.613281 11.546875 -8.40625 C 11.566406 -7.195312 11.617188 -6.007812 11.703125 -4.84375 C 11.785156 -3.6875 11.921875 -2.664062 12.109375 -1.78125 C 12.304688 -0.90625 12.5625 -0.3125 12.875 0 L 1.609375 0 C 1.921875 -0.3125 2.171875 -0.90625 2.359375 -1.78125 C 2.546875 -2.664062 2.679688 -3.6875 2.765625 -4.84375 C 2.859375 -6.007812 2.910156 -7.195312 2.921875 -8.40625 C 2.941406 -9.613281 2.941406 -10.71875 2.921875 -11.71875 C 2.910156 -12.726562 2.90625 -13.507812 2.90625 -14.0625 L 2.90625 -40.015625 C 2.90625 -40.566406 2.910156 -41.34375 2.921875 -42.34375 C 2.941406 -43.351562 2.9375 -44.460938 2.90625 -45.671875 C 2.875 -46.890625 2.820312 -48.078125 2.75 -49.234375 C 2.675781 -50.390625 2.546875 -51.410156 2.359375 -52.296875 C 2.171875 -53.179688 1.90625 -53.78125 1.5625 -54.09375 Z M 1.5625 -54.09375 "/></g></g></g><g fill="#c7a17a" fill-opacity="1"><g transform="translate(264.276203, 218.568455)"><g><path d="M 24.078125 0 L 1.5625 0 C 1.90625 -0.3125 2.171875 -0.90625 2.359375 -1.78125 C 2.546875 -2.664062 2.675781 -3.6875 2.75 -4.84375 C 2.820312 -6.007812 2.875 -7.195312 2.90625 -8.40625 C 2.9375 -9.613281 2.941406 -10.71875 2.921875 -11.71875 C 2.910156 -12.726562 2.90625 -13.507812 2.90625 -14.0625 L 2.90625 -40.015625 C 2.90625 -40.566406 2.910156 -41.34375 2.921875 -42.34375 C 2.941406 -43.351562 2.9375 -44.460938 2.90625 -45.671875 C 2.875 -46.890625 2.820312 -48.078125 2.75 -49.234375 C 2.675781 -50.390625 2.546875 -51.410156 2.359375 -52.296875 C 2.171875 -53.179688 1.90625 -53.78125 1.5625 -54.09375 L 12.984375 -54.09375 C 12.628906 -53.78125 12.359375 -53.179688 12.171875 -52.296875 C 11.984375 -51.410156 11.851562 -50.390625 11.78125 -49.234375 C 11.707031 -48.078125 11.65625 -46.890625 11.625 -45.671875 C 11.59375 -44.460938 11.582031 -43.351562 11.59375 -42.34375 C 11.613281 -41.34375 11.625 -40.566406 11.625 -40.015625 C 11.625 -39.640625 11.625 -38.765625 11.625 -37.390625 C 11.625 -36.023438 11.625 -34.359375 11.625 -32.390625 C 11.625 -30.421875 11.625 -28.316406 11.625 -26.078125 C 11.625 -23.847656 11.625 -21.632812 11.625 -19.4375 C 11.625 -17.238281 11.625 -15.238281 11.625 -13.4375 C 11.625 -11.644531 11.625 -10.203125 11.625 -9.109375 C 11.625 -8.015625 11.625 -7.46875 11.625 -7.46875 L 13.03125 -7.46875 C 14.65625 -7.46875 16.03125 -7.476562 17.15625 -7.5 C 18.28125 -7.519531 19.367188 -7.640625 20.421875 -7.859375 C 21.484375 -8.085938 22.703125 -8.515625 24.078125 -9.140625 Z M 24.078125 0 "/></g></g></g><g fill="#c7a17a" fill-opacity="1"><g transform="translate(289.39634, 218.568455)"><g><path d="M 0 -54.09375 L 12.203125 -54.09375 C 11.816406 -52.976562 11.769531 -51.375 12.0625 -49.28125 C 12.363281 -47.1875 12.859375 -44.804688 13.546875 -42.140625 C 14.234375 -39.484375 14.941406 -36.71875 15.671875 -33.84375 C 16.015625 -35.988281 16.40625 -38.082031 16.84375 -40.125 C 17.28125 -42.164062 17.671875 -44.082031 18.015625 -45.875 C 18.359375 -47.675781 18.582031 -49.273438 18.6875 -50.671875 C 18.789062 -52.078125 18.6875 -53.195312 18.375 -54.03125 L 30.578125 -54.03125 C 30.023438 -53.03125 29.488281 -52.035156 28.96875 -51.046875 C 28.445312 -50.066406 27.953125 -48.976562 27.484375 -47.78125 C 27.015625 -46.582031 26.539062 -45.140625 26.0625 -43.453125 L 19.625 -21.171875 L 19.625 -12.921875 C 19.625 -12.296875 19.628906 -11.382812 19.640625 -10.1875 C 19.660156 -9 19.726562 -7.710938 19.84375 -6.328125 C 19.96875 -4.941406 20.175781 -3.671875 20.46875 -2.515625 C 20.769531 -1.359375 21.195312 -0.519531 21.75 0 L 15.578125 -0.046875 L 8.828125 -0.046875 C 9.378906 -0.566406 9.800781 -1.40625 10.09375 -2.5625 C 10.382812 -3.726562 10.59375 -5 10.71875 -6.375 C 10.84375 -7.757812 10.910156 -9.050781 10.921875 -10.25 C 10.941406 -11.445312 10.953125 -12.359375 10.953125 -12.984375 L 10.953125 -21.234375 L 4.46875 -43.5 C 3.976562 -45.195312 3.488281 -46.640625 3 -47.828125 C 2.519531 -49.023438 2.035156 -50.113281 1.546875 -51.09375 C 1.066406 -52.082031 0.550781 -53.082031 0 -54.09375 Z M 0 -54.09375 "/></g></g></g><g clip-path="url(#dc788edc52)"><path fill="#c7a17a" d="M 92.089844 175.015625 C 91.433594 174.347656 89.335938 173.523438 86.546875 173.523438 C 84.152344 173.523438 81.25 174.132812 78.3125 175.96875 C 73.921875 178.722656 68.4375 183.46875 64.351562 187.082031 C 63.269531 186.367188 62.546875 185.882812 62.332031 185.730469 C 61.164062 184.914062 59.191406 184.21875 56.765625 184.003906 C 56.933594 183.636719 57.082031 183.246094 57.195312 182.824219 C 58.320312 178.6875 55.847656 175.316406 50.910156 173.972656 C 45.976562 172.632812 42.128906 174.320312 41.011719 178.425781 C 39.886719 182.5625 42.359375 185.933594 47.292969 187.277344 C 48.125 187.503906 49.046875 187.644531 49.671875 187.671875 C 53.597656 187.835938 57.347656 187.738281 58.652344 188.386719 C 58.96875 188.546875 59.753906 189.199219 60.859375 190.164062 C 59.753906 191.132812 58.96875 191.78125 58.652344 191.941406 C 57.347656 192.59375 53.597656 192.492188 49.671875 192.65625 C 49.046875 192.683594 48.125 192.828125 47.292969 193.050781 C 42.472656 194.363281 40.003906 197.613281 40.941406 201.621094 C 40.882812 201.679688 40.824219 201.738281 40.765625 201.792969 C 39.730469 202.808594 37.496094 202.582031 37.820312 203.992188 C 38.140625 205.390625 41.171875 205.535156 42.703125 204.917969 C 43.9375 206.15625 45.675781 206.808594 47.742188 206.808594 C 48.730469 206.808594 49.792969 206.660156 50.910156 206.355469 C 55.847656 205.011719 58.320312 201.640625 57.195312 197.503906 C 57.082031 197.082031 56.933594 196.691406 56.765625 196.324219 C 59.191406 196.109375 61.164062 195.417969 62.332031 194.601562 C 63.914062 193.488281 92.089844 175.015625 92.089844 175.015625 Z M 54.128906 181.992188 C 53.546875 184.136719 51.269531 183.914062 48.421875 183.140625 C 45.570312 182.363281 43.5 181.375 44.078125 179.257812 C 44.652344 177.144531 46.9375 177.335938 49.789062 178.113281 C 52.667969 178.894531 54.714844 179.847656 54.128906 181.992188 Z M 49.789062 202.214844 C 48.609375 202.539062 47.527344 202.757812 46.625 202.757812 C 45.339844 202.757812 44.414062 202.3125 44.078125 201.070312 C 43.5 198.957031 45.570312 197.964844 48.421875 197.191406 C 49.609375 196.867188 50.695312 196.640625 51.601562 196.640625 C 52.875 196.640625 53.789062 197.085938 54.128906 198.335938 C 54.714844 200.484375 52.667969 201.433594 49.789062 202.214844 Z M 49.789062 202.214844 " fill-opacity="1" fill-rule="nonzero"/></g><g clip-path="url(#aac2c833ab)"><path fill="#c7a17a" d="M 65.203125 194.003906 C 69.179688 197.5 74.222656 201.796875 78.3125 204.359375 C 84.664062 208.339844 90.867188 206.5625 92.089844 205.3125 C 92.089844 205.3125 78.863281 196.640625 70.023438 190.824219 C 68.125 192.074219 66.460938 193.171875 65.203125 194.003906 Z M 65.203125 194.003906 " fill-opacity="1" fill-rule="nonzero"/></g></svg>