<svg xmlns="http://www.w3.org/2000/svg" xmlns:xlink="http://www.w3.org/1999/xlink" width="500" zoomAndPan="magnify" viewBox="0 0 375 374.999991" height="500" preserveAspectRatio="xMidYMid meet" version="1.0"><defs><clipPath id="256ca9d553"><path d="M 172 176 L 207.976562 176 L 207.976562 199 L 172 199 Z M 172 176 " clip-rule="nonzero"/></clipPath><clipPath id="85101669c4"><path d="M 190 187 L 207.976562 187 L 207.976562 199 L 190 199 Z M 190 187 " clip-rule="nonzero"/></clipPath></defs><g clip-path="url(#256ca9d553)"><path fill="#ffffff" d="M 208.273438 177.207031 C 207.835938 176.757812 206.441406 176.210938 204.585938 176.210938 C 202.996094 176.210938 201.0625 176.617188 199.113281 177.839844 C 196.195312 179.667969 192.546875 182.824219 189.828125 185.226562 C 189.113281 184.75 188.628906 184.429688 188.484375 184.328125 C 187.710938 183.785156 186.398438 183.324219 184.785156 183.179688 C 184.898438 182.9375 184.996094 182.675781 185.070312 182.398438 C 185.820312 179.648438 184.175781 177.40625 180.894531 176.511719 C 177.613281 175.621094 175.054688 176.742188 174.3125 179.472656 C 173.5625 182.222656 175.207031 184.464844 178.488281 185.355469 C 179.039062 185.507812 179.652344 185.601562 180.066406 185.621094 C 182.679688 185.730469 185.171875 185.664062 186.039062 186.09375 C 186.25 186.199219 186.773438 186.636719 187.507812 187.277344 C 186.773438 187.917969 186.25 188.351562 186.039062 188.457031 C 185.171875 188.890625 182.679688 188.824219 180.066406 188.933594 C 179.652344 188.953125 179.039062 189.046875 178.488281 189.195312 C 175.28125 190.070312 173.640625 192.226562 174.265625 194.894531 C 174.226562 194.929688 174.1875 194.96875 174.148438 195.007812 C 173.460938 195.683594 171.972656 195.53125 172.191406 196.46875 C 172.402344 197.398438 174.417969 197.496094 175.4375 197.085938 C 176.257812 197.90625 177.410156 198.34375 178.785156 198.34375 C 179.445312 198.34375 180.148438 198.242188 180.894531 198.042969 C 184.175781 197.148438 185.820312 194.90625 185.070312 192.15625 C 184.996094 191.875 184.898438 191.617188 184.785156 191.371094 C 186.398438 191.230469 187.710938 190.769531 188.484375 190.226562 C 189.539062 189.488281 208.273438 177.207031 208.273438 177.207031 Z M 183.035156 181.84375 C 182.644531 183.269531 181.132812 183.121094 179.238281 182.605469 C 177.339844 182.089844 175.964844 181.433594 176.347656 180.027344 C 176.730469 178.621094 178.25 178.746094 180.144531 179.265625 C 182.0625 179.785156 183.421875 180.417969 183.035156 181.84375 Z M 180.144531 195.289062 C 179.363281 195.503906 178.644531 195.648438 178.042969 195.648438 C 177.191406 195.648438 176.574219 195.351562 176.347656 194.527344 C 175.964844 193.121094 177.339844 192.464844 179.238281 191.949219 C 180.027344 191.734375 180.75 191.582031 181.351562 191.582031 C 182.199219 191.582031 182.808594 191.878906 183.035156 192.710938 C 183.421875 194.136719 182.0625 194.769531 180.144531 195.289062 Z M 180.144531 195.289062 " fill-opacity="1" fill-rule="nonzero"/></g><g clip-path="url(#85101669c4)"><path fill="#ffffff" d="M 190.398438 189.828125 C 193.039062 192.152344 196.390625 195.011719 199.113281 196.714844 C 203.335938 199.359375 207.457031 198.179688 208.273438 197.347656 C 208.273438 197.347656 199.476562 191.582031 193.601562 187.714844 C 192.339844 188.546875 191.230469 189.277344 190.398438 189.828125 Z M 190.398438 189.828125 " fill-opacity="1" fill-rule="nonzero"/></g><path stroke-linecap="butt" transform="matrix(0.75, 0, 0, 0.75, 48.226566, 186.749988)" fill="none" stroke-linejoin="miter" d="M -0.00000484416 1.000016 L 160.000006 1.000016 " stroke="#ffffff" stroke-width="2" stroke-opacity="1" stroke-miterlimit="4"/><path stroke-linecap="butt" transform="matrix(0.75, 0, 0, 0.75, 206.773424, 186.749988)" fill="none" stroke-linejoin="miter" d="M 0.0000183708 1.000016 L 160.000029 1.000016 " stroke="#ffffff" stroke-width="2" stroke-opacity="1" stroke-miterlimit="4"/></svg>